<svg width="30" height="30" viewBox="0 0 30 30" fill="none" xmlns="http://www.w3.org/2000/svg">
<g clip-path="url(#clip0_0_106)">
<rect width="30" height="30" rx="15" fill="#DB0000"/>
<path d="M5.65918 16.876H2.44629V15.3916H5.65918V16.876ZM9.69238 19.1758C8.78418 19.1758 8.05501 18.9854 7.50488 18.6045C6.95475 18.2204 6.67969 17.7158 6.67969 17.0908C6.67969 16.6156 6.83919 16.2135 7.1582 15.8848C7.48047 15.5527 7.89876 15.3542 8.41309 15.2891V15.2549C7.9834 15.1702 7.63346 14.9798 7.36328 14.6836C7.09635 14.3874 6.96289 14.0407 6.96289 13.6436C6.96289 13.0999 7.2168 12.654 7.72461 12.3057C8.23568 11.9541 8.8916 11.7783 9.69238 11.7783C10.4964 11.7783 11.1523 11.9541 11.6602 12.3057C12.168 12.6572 12.4219 13.1048 12.4219 13.6484C12.4219 14.0391 12.2884 14.3841 12.0215 14.6836C11.7546 14.9798 11.4079 15.1702 10.9814 15.2549V15.2891C11.4958 15.3574 11.9124 15.5576 12.2314 15.8896C12.5505 16.2184 12.71 16.6204 12.71 17.0957C12.71 17.7174 12.4316 18.2204 11.875 18.6045C11.3216 18.9854 10.5941 19.1758 9.69238 19.1758ZM9.69238 17.9453C10.0277 17.9453 10.3011 17.8525 10.5127 17.667C10.7243 17.4782 10.8301 17.2422 10.8301 16.959C10.8301 16.6758 10.7243 16.4414 10.5127 16.2559C10.3011 16.0703 10.0277 15.9775 9.69238 15.9775C9.36035 15.9775 9.08854 16.0703 8.87695 16.2559C8.66536 16.4414 8.55957 16.6758 8.55957 16.959C8.55957 17.2422 8.66536 17.4782 8.87695 17.667C9.08854 17.8525 9.36035 17.9453 9.69238 17.9453ZM9.69238 14.7471C9.97233 14.7471 10.2035 14.6641 10.3857 14.498C10.568 14.332 10.6592 14.1253 10.6592 13.8779C10.6592 13.6273 10.568 13.4189 10.3857 13.2529C10.2035 13.0869 9.97233 13.0039 9.69238 13.0039C9.41569 13.0039 9.1862 13.0869 9.00391 13.2529C8.82161 13.4189 8.73047 13.6273 8.73047 13.8779C8.73047 14.1253 8.82161 14.332 9.00391 14.498C9.1862 14.6641 9.41569 14.7471 9.69238 14.7471ZM15.4199 16.0166V14.7812H16.2744C16.5771 14.7812 16.8197 14.7048 17.002 14.5518C17.1842 14.3955 17.2754 14.1904 17.2754 13.9365C17.2754 13.6794 17.1859 13.4775 17.0068 13.3311C16.8278 13.1846 16.5788 13.1113 16.2598 13.1113C15.9538 13.1113 15.7048 13.196 15.5127 13.3652C15.3206 13.5345 15.2197 13.7559 15.21 14.0293H13.5889C13.6019 13.349 13.859 12.8037 14.3604 12.3936C14.8617 11.9834 15.5208 11.7783 16.3379 11.7783C17.1224 11.7783 17.7507 11.9525 18.2227 12.3008C18.6979 12.6491 18.9355 13.113 18.9355 13.6924C18.9355 14.1123 18.8005 14.4688 18.5303 14.7617C18.2601 15.0547 17.9069 15.2402 17.4707 15.3184V15.3574C17.998 15.4062 18.4163 15.5804 18.7256 15.8799C19.0381 16.1794 19.1943 16.5684 19.1943 17.0469C19.1943 17.6914 18.9258 18.2074 18.3887 18.5947C17.8548 18.9821 17.1484 19.1758 16.2695 19.1758C15.446 19.1758 14.7786 18.9691 14.2676 18.5557C13.7598 18.1423 13.488 17.5921 13.4521 16.9053H15.1611C15.1774 17.1722 15.2865 17.3838 15.4883 17.54C15.6901 17.693 15.9603 17.7695 16.2988 17.7695C16.6178 17.7695 16.8766 17.6898 17.0752 17.5303C17.277 17.3675 17.3779 17.1559 17.3779 16.8955C17.3779 16.6221 17.2803 16.4072 17.085 16.251C16.8896 16.0947 16.6211 16.0166 16.2793 16.0166H15.4199ZM23.1494 13.6582C23.1494 14.2344 22.998 14.6901 22.6953 15.0254C22.3958 15.3574 21.9889 15.5234 21.4746 15.5234C20.9603 15.5234 20.5518 15.3574 20.249 15.0254C19.9495 14.6901 19.7998 14.2344 19.7998 13.6582C19.7998 13.0853 19.9495 12.6312 20.249 12.2959C20.5518 11.9606 20.9603 11.793 21.4746 11.793C21.9889 11.793 22.3958 11.9606 22.6953 12.2959C22.998 12.6312 23.1494 13.0853 23.1494 13.6582ZM21.167 14.2881C21.2419 14.4411 21.3444 14.5176 21.4746 14.5176C21.6048 14.5176 21.7057 14.4411 21.7773 14.2881C21.8522 14.1351 21.8896 13.9219 21.8896 13.6484C21.8896 13.375 21.8522 13.1618 21.7773 13.0088C21.7057 12.8558 21.6048 12.7793 21.4746 12.7793C21.3444 12.7793 21.2419 12.8558 21.167 13.0088C21.0954 13.1618 21.0596 13.375 21.0596 13.6484C21.0596 13.9219 21.0954 14.1351 21.167 14.2881ZM22.002 19H20.6445L23.3887 15.2402L25.7812 11.9541H27.1387L24.4727 15.6113L22.002 19ZM27.9834 17.2471C27.9834 17.8232 27.832 18.279 27.5293 18.6143C27.2298 18.9463 26.8229 19.1123 26.3086 19.1123C25.7943 19.1123 25.3857 18.9463 25.083 18.6143C24.7835 18.279 24.6338 17.8232 24.6338 17.2471C24.6338 16.6742 24.7835 16.2217 25.083 15.8896C25.3857 15.5544 25.7943 15.3867 26.3086 15.3867C26.8229 15.3867 27.2298 15.5544 27.5293 15.8896C27.832 16.2217 27.9834 16.6742 27.9834 17.2471ZM26.001 17.877C26.0758 18.0299 26.1784 18.1064 26.3086 18.1064C26.4388 18.1064 26.5397 18.0299 26.6113 17.877C26.6862 17.724 26.7236 17.5107 26.7236 17.2373C26.7236 16.9639 26.6862 16.7507 26.6113 16.5977C26.5397 16.4447 26.4388 16.3682 26.3086 16.3682C26.1784 16.3682 26.0758 16.4447 26.001 16.5977C25.9294 16.7507 25.8936 16.9639 25.8936 17.2373C25.8936 17.5107 25.9294 17.724 26.001 17.877Z" fill="white"/>
</g>
<defs>
<clipPath id="clip0_0_106">
<rect width="30" height="30" fill="white"/>
</clipPath>
</defs>
</svg>
